<svg width="137" height="21" viewBox="0 0 137 21" fill="none" xmlns="http://www.w3.org/2000/svg">
<circle cx="10.5" cy="10.5" r="9.07812" stroke="#E08385" stroke-width="2.84376"/>
<circle cx="10.502" cy="10.5002" r="7.76562" fill="url(#paint0_linear)" stroke="white" stroke-width="2.84376"/>
<path d="M26.2483 14.5958C27.1581 15.5057 28.4694 15.9606 29.7137 15.9606C31.9214 15.9606 33.1122 14.5825 33.1122 12.9769C33.1122 9.95297 28.8841 10.2741 28.8841 8.90932C28.8841 8.5213 29.1919 8.22694 29.901 8.22694C30.6503 8.22694 31.4799 8.60158 32.0151 9.06989L33.0052 7.15654C32.1756 6.42064 31.0785 6.07275 30.0081 6.07275C28.0011 6.07275 26.5426 7.23682 26.5426 9.00299C26.5426 12.0001 30.7707 11.786 30.7707 13.1374C30.7707 13.5121 30.4362 13.8064 29.7806 13.8064C28.9243 13.8064 28.0144 13.2846 27.4792 12.8163L26.2483 14.5958ZM33.9192 12.348C33.9192 14.248 35.2974 15.9606 37.7593 15.9606C38.91 15.9606 40.0339 15.5191 40.7163 14.8233L39.8733 13.2043C39.3783 13.6325 38.6558 14.0339 37.9868 14.0339C36.8227 14.0339 36.2607 13.1374 36.2607 12.3212C36.2607 11.5051 36.8093 10.6755 37.9065 10.6755C38.5086 10.6755 39.1241 10.9565 39.5255 11.3445L40.5022 9.79241C39.8198 9.05651 38.7227 8.74876 37.7593 8.74876C35.284 8.74876 33.9192 10.5016 33.9192 12.348ZM41.6898 15.8H44.0045V12.6959C44.0045 11.6389 44.4996 10.8494 45.5031 10.8494C46.0115 10.8494 46.2658 11.117 46.2658 11.7593V15.8H48.5805V11.3311C48.5805 9.39101 47.4967 8.74876 46.1052 8.74876C45.1954 8.74876 44.3926 9.16355 44.0045 9.84593H43.9778C43.9778 9.84593 44.0045 9.60509 44.0045 9.25721V6.23332H41.6898V15.8ZM49.6774 12.3748C49.6774 14.5289 51.4168 15.9606 53.5843 15.9606C55.7519 15.9606 57.4913 14.5289 57.4913 12.3748C57.4913 10.2072 55.7519 8.74876 53.571 8.74876C51.4168 8.74876 49.6774 10.2072 49.6774 12.3748ZM52.0189 12.3748C52.0189 11.3311 52.7414 10.6755 53.5843 10.6755C54.4273 10.6755 55.1498 11.3311 55.1498 12.3748C55.1498 13.405 54.4273 14.0339 53.5843 14.0339C52.7414 14.0339 52.0189 13.405 52.0189 12.3748ZM58.6367 13.2578C58.6367 15.5726 59.9479 15.8669 61.1789 15.8669C61.4732 15.8669 61.7141 15.8402 61.8746 15.8268V13.8198C61.7676 13.8332 61.6606 13.8332 61.5936 13.8332C61.0718 13.8332 60.9514 13.6057 60.9514 12.9501V6.23332H58.6367V13.2578ZM62.4934 13.8599C62.4934 15.0508 63.4166 15.9606 64.7412 15.9606C65.5306 15.9606 66.3334 15.5993 66.7883 14.9571H66.8151C66.8151 14.9571 66.7883 15.1578 66.7883 15.3853V15.8H68.9024V11.5586C68.9024 9.80579 67.725 8.74876 65.825 8.74876C64.7011 8.74876 63.4969 9.19031 62.9081 9.64523L63.7109 11.2776C64.2595 10.9163 64.9419 10.622 65.6109 10.622C66.1193 10.622 66.5876 10.8093 66.5876 11.3846V11.5051H66.3869C64.6877 11.5051 62.4934 12.0135 62.4934 13.8599ZM64.7813 13.6459C64.7813 13.017 65.6912 12.8297 66.4003 12.8297H66.6144V13.017C66.6144 13.579 66.106 14.2346 65.437 14.2346C65.0088 14.2346 64.7813 13.967 64.7813 13.6459ZM70.3706 15.8H72.6854V13.124C72.6854 11.8663 73.3009 11.0501 74.5854 11.0501C74.7459 11.0501 74.9734 11.0635 75.0537 11.0903V8.81566C74.9734 8.80228 74.8797 8.7889 74.7861 8.7889C73.7558 8.7889 72.8861 9.56495 72.5917 10.5016H72.565C72.565 10.5016 72.5917 10.3008 72.5917 10.0734V8.90932H70.3706V15.8ZM75.5458 14.9437C76.3085 15.6261 77.3655 15.9606 78.3556 15.9606C80.1218 15.9606 81.1922 14.9839 81.1922 13.6994C81.1922 11.4649 77.9676 11.6389 77.9676 10.9163C77.9676 10.729 78.1148 10.5818 78.6098 10.5818C79.1986 10.5818 79.9478 10.8227 80.3492 11.1438L81.1387 9.53819C80.4429 8.97622 79.5598 8.74876 78.6767 8.74876C77.0845 8.74876 75.8134 9.51143 75.8134 10.9297C75.8134 13.1909 79.038 13.0304 79.038 13.7663C79.038 13.9804 78.8774 14.1275 78.4091 14.1275C77.7535 14.1275 77.0444 13.8599 76.5359 13.4318L75.5458 14.9437ZM82.3656 15.8H84.6804V12.6959C84.6804 11.6389 85.1755 10.8494 86.179 10.8494C86.6874 10.8494 86.9416 11.117 86.9416 11.7593V15.8H89.2564V11.3311C89.2564 9.39101 88.1726 8.74876 86.7811 8.74876C85.8712 8.74876 85.0684 9.16355 84.6804 9.84593H84.6536C84.6536 9.84593 84.6804 9.60509 84.6804 9.25721V6.23332H82.3656V15.8ZM90.768 8.03962H93.0292V6.23332H90.768V8.03962ZM90.7412 15.8H93.056V8.90932H90.7412V15.8ZM94.6089 18.4761H96.9237V15.8937C96.9237 15.5458 96.8969 15.305 96.8969 15.305H96.9237C97.4187 15.7331 98.0342 15.9606 98.6764 15.9606C100.51 15.9606 101.888 14.5423 101.888 12.3614C101.888 10.2206 100.657 8.74876 98.7835 8.74876C97.9539 8.74876 97.1645 9.06989 96.6962 9.69875H96.6694C96.6694 9.69875 96.6962 9.48467 96.6962 9.25721V8.90932H94.6089V18.4761ZM96.8568 12.4015C96.8568 11.2107 97.5124 10.7023 98.2081 10.7023C99.0109 10.7023 99.5595 11.3713 99.5595 12.4015C99.5595 13.4585 98.9307 14.0473 98.2081 14.0473C97.2983 14.0473 96.8568 13.2311 96.8568 12.4015Z" fill="#061C2E"/>
<path d="M102.26 15.8H104.668L105.244 13.793H108.227L108.816 15.8H111.224L107.973 6.23332H105.511L102.26 15.8ZM105.792 11.9198L106.341 10.06C106.515 9.45791 106.729 8.41426 106.729 8.41426H106.755C106.755 8.41426 106.97 9.45791 107.144 10.06L107.679 11.9198H105.792ZM111.961 18.4761H114.276V15.8937C114.276 15.5458 114.249 15.305 114.249 15.305H114.276C114.771 15.7331 115.386 15.9606 116.029 15.9606C117.862 15.9606 119.24 14.5423 119.24 12.3614C119.24 10.2206 118.009 8.74876 116.136 8.74876C115.306 8.74876 114.517 9.06989 114.048 9.69875H114.022C114.022 9.69875 114.048 9.48467 114.048 9.25721V8.90932H111.961V18.4761ZM114.209 12.4015C114.209 11.2107 114.865 10.7023 115.56 10.7023C116.363 10.7023 116.912 11.3713 116.912 12.4015C116.912 13.4585 116.283 14.0473 115.56 14.0473C114.651 14.0473 114.209 13.2311 114.209 12.4015ZM120.428 18.4761H122.743V15.8937C122.743 15.5458 122.716 15.305 122.716 15.305H122.743C123.238 15.7331 123.854 15.9606 124.496 15.9606C126.329 15.9606 127.707 14.5423 127.707 12.3614C127.707 10.2206 126.476 8.74876 124.603 8.74876C123.773 8.74876 122.984 9.06989 122.516 9.69875H122.489C122.489 9.69875 122.516 9.48467 122.516 9.25721V8.90932H120.428V18.4761ZM122.676 12.4015C122.676 11.2107 123.332 10.7023 124.027 10.7023C124.83 10.7023 125.379 11.3713 125.379 12.4015C125.379 13.4585 124.75 14.0473 124.027 14.0473C123.118 14.0473 122.676 13.2311 122.676 12.4015Z" fill="#E14B58"/>
<defs>
<linearGradient id="paint0_linear" x1="10.502" y1="1.31274" x2="10.502" y2="19.6877" gradientUnits="userSpaceOnUse">
<stop stop-color="#EB6568"/>
<stop offset="1" stop-color="#D73148"/>
</linearGradient>
</defs>
</svg>
